# File created by Blade
# Date/Time:  Mon Sep 29 17:58:21 2014
# Frame Rate: 120.000 fps
#------------------------------------------------------
:FULLY-SPECIFIED
:DEGREES
1693
root -1.992493 3.822644 -7.839869 -22.551240 5.216067 6.626798
Spine 46.735978 59.699274 20.281392
Head -90.554000 70.421704 -71.000712
LeftShoulder -10.378596 12.467777 16.162767
LeftArm 26.516400 30.471846 -76.181018
LeftForeArm -27.591575 -0.000000 8.556177
LeftHand -53.417668 -0.000000 78.171881
LeftHandThumb1 -26.253704 0.000000 33.147579
RightShoulder 7.050840 29.813342 -19.411700
RightArm -2.583706 -51.666638 64.927234
RightForeArm -23.973475 -0.000000 15.381897
RightHand -5.362908 0.000000 31.762552
RightHandThumb1 -24.326973 -0.000000 -32.862282
LeftUpLeg -109.762769 -29.224985 -15.264765
LeftLeg 116.540062 -0.000000 -0.000000
LeftFoot 9.350412 11.716710 -16.637803
LeftToeBase 6.385610 -0.000000 -0.000000
RightUpLeg -63.750556 -2.837088 18.359970
RightLeg 6.205195 -0.000000 -0.000000
RightFoot 37.846225 -3.396046 10.917686
RightToeBase 7.790964 -0.000000 -0.000000
1694
root -1.993558 3.820619 -7.843205 -22.544176 5.291489 6.579203
Spine 46.733964 59.687120 20.304749
Head -90.561033 70.404243 -70.940696
LeftShoulder -10.350078 12.446679 16.193486
LeftArm 26.557216 30.549679 -76.145439
LeftForeArm -27.624633 -0.000000 8.574272
LeftHand -53.433966 0.000000 78.221456
LeftHandThumb1 -26.253704 0.000000 33.147579
RightShoulder 7.051647 29.810544 -19.386702
RightArm -2.518486 -51.693916 64.862990
RightForeArm -23.967979 -0.000000 15.348795
RightHand -5.394180 -0.000000 31.752532
RightHandThumb1 -24.326973 -0.000000 -32.862282
LeftUpLeg -109.720558 -29.251135 -15.337506
LeftLeg 116.515043 -0.000000 -0.000000
LeftFoot 9.400073 11.733287 -16.527147
LeftToeBase 6.301231 -0.000000 -0.000000
RightUpLeg -63.775927 -2.890013 18.338139
RightLeg 6.185085 -0.000000 -0.000000
RightFoot 37.876252 -3.319659 10.874120
RightToeBase 7.812705 -0.000000 -0.000000
1695
root -1.995547 3.818335 -7.845081 -22.545491 5.369089 6.513035
Spine 46.757429 59.668681 20.387322
Head -90.387970 70.401764 -70.746167
LeftShoulder -10.323306 12.480063 16.214054
LeftArm 26.685454 30.714100 -76.030710
LeftForeArm -27.752724 0.000000 8.594157
LeftHand -53.379054 0.000000 78.227889
LeftHandThumb1 -26.253704 0.000000 33.147579
RightShoulder 7.029901 29.822010 -19.379583
RightArm -2.481933 -51.751494 64.826079
RightForeArm -24.023945 0.000000 15.321962
RightHand -5.378997 -0.000000 31.756801
RightHandThumb1 -24.326973 -0.000000 -32.862282
LeftUpLeg -109.676088 -29.282682 -15.387474
LeftLeg 116.500722 -0.000000 -0.000000
LeftFoot 9.414176 11.712433 -16.489421
LeftToeBase 6.353066 -0.000000 -0.000000
RightUpLeg -63.799126 -2.959402 18.370600
RightLeg 6.162449 -0.000000 -0.000000
RightFoot 38.084844 -3.027723 10.474067
RightToeBase 7.099896 -0.000000 -0.000000
1696
root -1.996454 3.815690 -7.849108 -22.531773 5.428355 6.463213
Spine 46.749169 59.659965 20.429029
Head -90.175441 70.394300 -70.520356
LeftShoulder -10.294818 12.450591 16.237450
LeftArm 26.699656 30.749622 -76.036857
LeftForeArm -27.734195 -0.000000 8.578111
LeftHand -53.414834 -0.000000 78.255549
LeftHandThumb1 -26.253704 0.000000 33.147579
RightShoulder 7.007639 29.831806 -19.354367
RightArm -2.391906 -51.810876 64.728346
RightForeArm -24.142403 -0.000000 15.322125
RightHand -5.344319 -0.000000 31.723680
RightHandThumb1 -24.326973 -0.000000 -32.862282
LeftUpLeg -109.655947 -29.299570 -15.426825
LeftLeg 116.480387 -0.000000 -0.000000
LeftFoot 9.452664 11.680906 -16.427469
LeftToeBase 6.340734 -0.000000 -0.000000
RightUpLeg -63.830454 -2.995746 18.347629
RightLeg 6.155933 -0.000000 -0.000000
RightFoot 37.955999 -3.192275 10.783859
RightToeBase 7.716509 -0.000000 -0.000000
1697
root -1.997748 3.813882 -7.852470 -22.525430 5.485481 6.399120
Spine 46.752707 59.638867 20.511975
Head -89.781157 70.391258 -70.154354
LeftShoulder -10.266405 12.496457 16.216695
LeftArm 26.789643 30.718830 -76.005856
LeftForeArm -27.690744 -0.000000 8.548442
LeftHand -53.464049 0.000000 78.295029
LeftHandThumb1 -26.253704 0.000000 33.147579
RightShoulder 7.005608 29.825111 -19.342509
RightArm -2.320537 -51.745270 64.662344
RightForeArm -24.188277 -0.000000 15.301093
RightHand -5.396971 -0.000000 31.795954
RightHandThumb1 -24.326973 -0.000000 -32.862282
LeftUpLeg -109.632722 -29.318638 -15.454071
LeftLeg 116.464483 -0.000000 -0.000000
LeftFoot 9.480000 11.652926 -16.431641
LeftToeBase 6.357342 -0.000000 -0.000000
RightUpLeg -63.851505 -3.029067 18.330319
RightLeg 6.144091 -0.000000 -0.000000
RightFoot 37.948735 -3.197346 10.833356
RightToeBase 7.775630 -0.000000 -0.000000
1698
root -1.997875 3.812819 -7.853986 -22.545471 5.542161 6.340565
Spine 46.819846 59.605343 20.648142
Head -89.250137 70.359005 -69.656960
LeftShoulder -10.233633 12.471547 16.211945
LeftArm 26.801622 30.738596 -76.010870
LeftForeArm -27.654665 -0.000000 8.528399
LeftHand -53.492712 -0.000000 78.292306
LeftHandThumb1 -26.253704 0.000000 33.147579
RightShoulder 6.988752 29.826651 -19.357787
RightArm -2.258375 -51.695982 64.619644
RightForeArm -24.217867 -0.000000 15.284034
RightHand -5.370543 -0.000000 31.686905
RightHandThumb1 -24.326973 -0.000000 -32.862282
LeftUpLeg -109.569259 -29.326368 -15.512614
LeftLeg 116.447863 -0.000000 -0.000000
LeftFoot 9.527933 11.613788 -16.393822
LeftToeBase 6.259877 -0.000000 -0.000000
RightUpLeg -63.851383 -3.085548 18.362610
RightLeg 6.120957 -0.000000 -0.000000
RightFoot 38.141748 -2.910339 10.409349
RightToeBase 7.217229 -0.000000 -0.000000
